 classDiagram
     Path --> Module
     Module --> ModuleUser
     User --> ModuleUser
     User --> Course
     Module --> Course

     Path : +String id
     Path : +String name
     Path : +String description

     User : +String id
     User : +String firstName
     User : +String lastName
     User : +String email
     User : +String password

     Course : +String id
     Course : +String name
     Course : +String description

     Module : +String id
     Module : +String name
     Module : +String description
     Module : +String prevModuleId
     Module : +String pathId

     ModuleUser : +String moduleId
     ModuleUser : +String userId

